<?xml version="1.0" standalone="no"?>
<!DOCTYPE svg PUBLIC "-//W3C//DTD SVG 20010904//EN"
 "http://www.w3.org/TR/2001/REC-SVG-20010904/DTD/svg10.dtd">
<svg version="1.0" xmlns="http://www.w3.org/2000/svg"
 width="227.000000pt" height="227.000000pt" viewBox="0 0 227.000000 227.000000"
 preserveAspectRatio="xMidYMid meet">
<metadata>
Created by potrace 1.11, written by Peter Selinger 2001-2013
</metadata>
<g transform="translate(0.000000,227.000000) scale(0.100000,-0.100000)"
fill="#000000" stroke="none">
<path d="M470 1818 c0 -146 0 -148 23 -149 20 -1 20 -2 2 -6 -11 -3 -31 -15
-45 -27 -24 -19 -37 -21 -171 -20 -144 0 -146 0 -135 -20 6 -12 55 -91 109
-177 54 -87 97 -166 97 -180 0 -20 -21 -108 -46 -191 -4 -14 -22 -17 -139 -17
-75 0 -139 -2 -143 -5 -10 -6 6 -127 18 -140 10 -10 310 -9 337 1 30 12 45 32
69 96 l23 62 1 -75 c3 -237 14 -391 31 -446 13 -43 41 -66 81 -67 18 -1 41
-10 50 -21 31 -33 106 -28 130 8 4 6 7 -27 7 -74 -2 -195 -1 -198 54 -207 30
-4 40 -1 59 20 l24 25 24 -25 c21 -21 30 -24 66 -19 l42 5 48 -79 c27 -44 51
-80 54 -80 3 0 31 43 64 96 57 93 59 95 78 77 15 -14 37 -18 88 -18 62 0 72 3
99 29 36 35 43 61 43 171 1 69 -2 89 -17 105 -10 12 -25 18 -32 16 -7 -3 -13
-1 -13 4 0 10 216 358 235 378 11 13 115 16 315 9 35 -1 67 4 87 15 35 17 42
17 86 0 37 -16 66 -15 72 1 19 50 20 147 3 135 -2 -1 -14 4 -27 11 -41 23
-128 26 -170 6 -35 -16 -41 -16 -69 -1 -36 18 -93 21 -109 5 -12 -12 -76 -3
-71 10 3 6 100 162 257 411 26 41 57 91 68 110 l22 35 -781 0 c-727 0 -781 1
-792 17 -7 10 -23 22 -37 27 -20 8 -17 10 26 10 50 1 51 2 50 31 0 29 -7 34
-46 31 -14 -2 -17 15 -10 60 1 3 12 4 25 2 20 -4 23 -1 22 24 -1 21 -7 29 -26
33 -36 7 -34 44 3 48 23 3 27 8 27 35 l0 32 -70 1 -70 0 0 -148z m-100 -343
c0 -25 -3 -45 -8 -45 -4 0 -19 20 -34 45 l-28 45 35 0 c35 0 35 0 35 -45z
m1551 -47 c-252 -403 -231 -375 -265 -375 -28 0 -39 10 -86 74 -70 95 -77 101
-97 80 -15 -15 -20 -11 -61 43 l-44 60 -39 -31 -38 -30 -49 96 -48 96 -99
-125 c-105 -132 -111 -135 -121 -59 -10 78 -64 112 -124 77 -39 -24 -57 -64
-65 -149 -8 -75 -16 -97 -48 -132 -17 -19 -20 -36 -20 -103 0 -44 -3 -80 -6
-80 -3 0 -24 31 -47 68 -37 62 -41 74 -43 145 -1 42 -4 87 -6 99 -15 93 -27
312 -18 331 2 4 314 7 693 7 l689 0 -58 -92z m-1092 -932 c-8 -7 -49 -17 -49
-12 0 2 5 17 10 32 l11 27 15 -22 c9 -12 14 -24 13 -25z m551 -161 c0 -25 -4
-45 -8 -45 -5 0 -7 17 -6 38 3 49 3 52 9 52 3 0 5 -20 5 -45z"/>
<path d="M759 1966 c-1 -1 -2 -67 -3 -148 l-1 -148 75 0 c112 0 115 4 117 140
3 128 -8 149 -74 151 -21 1 -55 2 -75 3 -21 1 -39 2 -39 2z m102 -93 c3 -86
-1 -137 -11 -147 -7 -7 -10 21 -10 87 0 58 4 97 10 97 6 0 10 -17 11 -37z"/>
<path d="M979 1966 c-1 -1 -2 -67 -3 -148 l-1 -148 42 0 43 0 0 65 c0 37 4 65
10 65 10 0 11 -8 14 -85 1 -39 2 -40 39 -43 40 -3 39 -5 40 63 0 49 -10 85
-26 85 -6 0 -3 6 7 13 24 18 24 83 0 108 -14 13 -39 19 -91 22 -40 2 -74 4
-74 3z m101 -86 c0 -16 -4 -30 -10 -30 -5 0 -10 14 -10 30 0 17 5 30 10 30 6
0 10 -13 10 -30z"/>
<path d="M1195 1960 c-2 -3 -3 -69 -3 -147 l0 -143 72 0 72 0 2 30 c2 29 -9
37 -42 31 -14 -3 -24 19 -19 40 3 10 15 19 27 21 15 2 22 11 24 31 3 23 0 27
-22 27 -21 0 -26 5 -26 25 0 20 5 25 25 25 22 0 25 4 25 33 l0 33 -66 -1 c-36
0 -67 -2 -69 -5z"/>
<path d="M1560 1818 l0 -148 38 0 38 0 -1 70 c-1 38 1 67 4 64 4 -3 6 -9 7
-12 0 -4 3 -33 8 -64 7 -56 9 -58 37 -58 22 0 29 5 30 20 1 11 3 25 4 30 1 6
3 22 4 36 0 14 5 23 9 20 5 -3 7 -28 5 -55 l-4 -51 39 0 39 0 -1 147 -1 147
-52 2 c-57 1 -55 4 -67 -78 -1 -10 -6 -21 -10 -25 -4 -4 -6 -3 -5 2 2 6 0 30
-4 55 l-8 45 -54 0 -55 0 0 -147z"/>
<path d="M1387 1903 c-15 -7 -27 -19 -27 -26 0 -7 -3 -22 -6 -34 -6 -21 -3
-23 35 -23 37 0 41 2 41 25 0 14 5 25 10 25 6 0 10 -11 10 -24 0 -20 -9 -28
-45 -42 -25 -9 -45 -19 -45 -23 -1 -3 -3 -22 -6 -42 -8 -55 10 -67 104 -68
l78 0 -1 92 c-1 50 -5 102 -9 114 -12 36 -92 51 -139 26z m63 -159 c0 -21 -4
-33 -10 -29 -17 10 -11 65 7 65 2 0 3 -16 3 -36z"/>
<path d="M630 1792 c0 -26 2 -27 50 -28 48 0 50 0 50 28 0 27 -2 28 -50 28
-48 0 -50 -1 -50 -28z"/>
</g>
</svg>
